<svg xmlns="http://www.w3.org/2000/svg" width="34" height="34" viewBox="0 0 34 34" fill="none">
<path d="M0 0C4.50868 -1.97081e-07 8.8327 1.79107 12.0208 4.97918C15.2089 8.1673 17 12.4913 17 17C17 21.5087 15.2089 25.8327 12.0208 29.0208C8.8327 32.2089 4.50868 34 2.02656e-06 34L0 0Z" fill="#36BCBA"/>
<path d="M34 34C29.4913 34 25.1673 32.2089 21.9792 29.0208C18.7911 25.8327 17 21.5087 17 17C17 12.4913 18.7911 8.1673 21.9792 4.97918C25.1673 1.79106 29.4913 -8.42088e-07 34 0L34 34Z" fill="#ECD171"/>
</svg>